<?xml version="1.0" standalone="no"?>
<!DOCTYPE svg PUBLIC "-//W3C//DTD SVG 20010904//EN"
 "http://www.w3.org/TR/2001/REC-SVG-20010904/DTD/svg10.dtd">
<svg version="1.0" xmlns="http://www.w3.org/2000/svg"
 width="1280.000000pt" height="991.000000pt" viewBox="0 0 1280.000000 991.000000"
 preserveAspectRatio="xMidYMid meet">
<metadata>
Created by potrace 1.15, written by Peter Selinger 2001-2017
</metadata>
<g transform="translate(0.000000,991.000000) scale(0.100000,-0.100000)"
fill="#000000" stroke="none">
<path d="M394 9891 c-102 -22 -166 -69 -299 -219 l-94 -106 16 -26 c70 -104
422 -701 451 -765 21 -43 53 -111 73 -149 35 -67 39 -70 95 -90 59 -21 59 -21
111 -116 34 -61 93 -143 167 -230 63 -74 156 -188 205 -253 l91 -117 -35 -46
c-19 -25 -35 -53 -35 -62 0 -37 23 -94 49 -125 17 -19 31 -50 36 -77 11 -66
34 -98 88 -123 36 -17 50 -30 58 -54 9 -29 7 -37 -17 -68 -26 -34 -27 -39 -15
-73 21 -59 37 -78 93 -110 52 -30 55 -31 141 -23 84 8 90 10 126 45 l38 38
425 -524 c445 -550 1068 -1364 1068 -1397 0 -11 3 -26 6 -34 7 -18 -46 -30
-127 -28 -50 1 -57 -2 -77 -28 -30 -42 -78 -47 -115 -12 -16 14 -38 43 -49 64
-17 34 -22 38 -46 32 -15 -4 -29 -9 -32 -12 -3 -2 -7 -49 -8 -103 -4 -106 15
-204 60 -317 67 -165 212 -312 503 -511 107 -72 213 -175 265 -254 44 -67 63
-137 89 -333 18 -126 24 -148 65 -232 125 -250 297 -430 510 -532 134 -65 204
-82 367 -88 203 -8 274 6 610 123 15 5 18 -10 24 -133 8 -170 18 -287 45 -513
11 -96 27 -253 35 -349 9 -96 20 -193 26 -214 6 -22 62 -155 126 -296 194
-431 228 -517 308 -766 42 -132 88 -274 101 -315 14 -41 35 -142 46 -224 l22
-148 256 6 c140 3 503 11 805 16 303 6 757 15 1010 20 253 6 510 10 571 10
l111 0 17 120 17 120 -41 217 c-22 120 -63 357 -90 528 l-51 309 -49 86 c-35
61 -57 119 -80 205 -18 66 -55 167 -82 225 -28 58 -65 147 -84 199 -18 51 -46
114 -61 140 -26 42 -28 55 -28 146 l0 100 -46 80 c-25 44 -69 125 -97 180 -48
95 -51 105 -57 200 -3 55 -13 146 -21 203 -20 147 -19 161 31 286 47 119 53
154 84 481 21 210 138 849 183 993 41 130 73 191 155 292 38 47 115 151 171
231 89 126 115 156 194 219 112 90 122 94 228 115 47 10 95 23 107 31 25 16
73 152 113 318 l25 110 120 69 c66 38 235 138 375 222 141 84 371 209 515 280
643 318 685 345 1085 690 58 50 159 133 225 184 66 52 143 115 170 141 28 26
102 89 165 139 101 81 144 107 358 213 319 159 315 156 335 255 21 102 71 288
98 360 12 32 35 96 51 141 l30 84 -49 56 c-33 38 -72 69 -119 94 l-69 36 -105
-76 c-71 -51 -143 -92 -220 -125 -63 -27 -139 -68 -168 -91 -60 -46 -137 -156
-207 -296 -55 -110 -88 -148 -184 -213 -42 -28 -132 -92 -201 -143 -105 -77
-176 -117 -448 -253 -177 -89 -362 -177 -410 -197 -48 -20 -164 -73 -257 -118
-154 -75 -179 -90 -260 -164 -127 -116 -249 -176 -582 -285 -320 -106 -470
-137 -660 -137 -184 0 -309 -21 -495 -82 l-156 -52 -44 30 c-63 43 -151 41
-267 -4 -113 -45 -167 -51 -203 -22 -17 12 -28 31 -28 45 0 13 -12 37 -26 52
-24 26 -26 32 -20 93 6 56 11 68 34 84 15 11 47 40 71 64 l43 45 -4 123 c-3
102 -7 126 -22 143 -11 12 -27 21 -38 21 -27 0 -35 27 -63 230 -14 102 -32
210 -40 240 -19 76 -81 209 -113 243 -58 62 -155 130 -249 175 l-98 47 -118
-2 c-101 -1 -127 -5 -190 -29 -173 -65 -200 -87 -306 -249 -29 -44 -62 -90
-73 -102 -11 -12 -31 -61 -45 -110 -23 -78 -26 -105 -25 -243 1 -162 -7 -205
-39 -215 -11 -4 -26 -17 -35 -30 -14 -21 -13 -34 5 -136 21 -116 26 -126 85
-194 32 -36 37 -39 57 -27 11 7 23 11 26 8 13 -13 14 -102 3 -175 l-12 -79
-92 -50 c-50 -28 -102 -55 -117 -60 -26 -10 -173 -2 -334 18 l-90 11 -68 66
c-63 61 -70 65 -104 60 -20 -4 -52 -17 -73 -31 -83 -55 -285 -93 -440 -83 -87
6 -287 38 -350 57 -19 6 -150 24 -290 40 l-255 30 -160 68 c-176 76 -374 167
-475 218 -91 46 -352 109 -640 154 -99 16 -155 31 -210 55 -41 19 -129 54
-195 80 -66 25 -154 62 -196 81 -42 19 -99 37 -125 41 -50 7 -106 35 -204 104
-121 84 -273 118 -384 84 -103 -31 -92 -39 -272 203 -89 119 -195 267 -237
328 l-76 111 -15 185 c-12 142 -20 196 -37 234 -42 97 -41 91 -3 113 19 12 50
21 69 21 35 0 45 13 45 55 0 26 -17 35 -66 35 -40 0 -104 -24 -104 -39 0 -6
-8 -11 -19 -11 -20 0 -91 72 -91 93 0 7 -11 41 -24 74 l-24 61 32 30 c26 25
37 28 72 25 40 -5 42 -4 46 27 13 91 -22 109 -115 60 -34 -18 -66 -38 -70 -46
-18 -31 -24 -21 -87 144 l-28 72 26 6 c15 3 35 8 46 11 10 3 27 25 38 49 l19
44 -28 53 c-25 46 -32 52 -64 55 -31 3 -40 -2 -57 -25 -10 -15 -25 -45 -32
-66 -15 -47 -21 -41 -45 39 -16 57 -20 62 -55 73 -20 6 -39 11 -41 10 -2 0
-40 -8 -85 -18z m2097 -2866 c96 -59 206 -127 244 -151 104 -64 397 -203 587
-278 267 -105 392 -145 578 -183 161 -33 190 -42 365 -120 105 -46 211 -96
237 -111 143 -83 238 -146 231 -152 -4 -4 -115 -56 -246 -114 l-238 -107 -55
50 c-111 102 -281 161 -414 146 l-60 -7 0 -35 c0 -30 10 -47 70 -110 87 -91
110 -127 110 -174 0 -77 -142 -169 -273 -176 l-72 -5 -170 203 c-93 112 -309
374 -479 584 -170 209 -380 463 -466 565 -172 204 -270 324 -270 333 0 19 173
-66 321 -158z m2517 -1314 c28 -38 118 -203 201 -367 l150 -299 20 -145 c11
-80 23 -175 27 -212 l7 -68 -103 35 c-162 54 -297 141 -417 268 -71 74 -89
109 -127 253 -54 209 -104 305 -201 392 l-54 47 222 82 c122 45 223 82 224 82
1 1 24 -30 51 -68z"/>
</g>
</svg>
